<svg class="icon" style="width: 1em; height: 1em;vertical-align: middle;fill: #EC532A;overflow: hidden;" viewBox="0 0 1024 1024" version="1.1" xmlns="http://www.w3.org/2000/svg"><path d="M397.15 960s-235.553-89.863-183.336-309.895C233.456 567.341 327.361 400.842 294.919 320c0 0 54.07 87.579 37.849 168.421 0 0 167.616-181.895 135.174-424.421 0 0 178.43 101.053 200.058 330.105 0 0 59.477-40.421 16.221-168.421 0 0 330.327 370.526-48.161 734.316 0 0 123.859-336.842-103.234-525.474 0 0 43.168 148.211-27.122 249.263 0 0-5.319-94.316-48.575-134.737 0 0 16.904 148.211-77.411 242.526-17.176 17.176-30.679 52.443-20.211 94.316 6.737 26.948 22.933 37.448 37.643 74.106z" /></svg>
